<svg xmlns="http://www.w3.org/2000/svg" xmlns:xlink="http://www.w3.org/1999/xlink" x="0px" y="0px" viewBox="0 0 50.1314354 49.4648323"><path fill="#EB5A25" d="M25.0657082,49.393055L25.0657082,49.393055c-17.2310982,0-24.9929657-8.9151535-24.9929657-21.0668488 v-7.7693329c0-11.2668028,7.5125933-20.485096,24.9929657-20.485096l0,0c17.2622566,0,24.9929848,9.0287008,24.9929848,21.2119904 v7.291687C50.0586929,40.3532639,42.1410103,49.393055,25.0657082,49.393055z"/><path fill="#FFFFFF" d="M30.8387184,11.0114164H19.2927189c-1.1050014,0-1.9969997,0.8959999-1.9969997,1.9989996v23.4460011 c0,1.1019974,0.8920002,1.9969978,1.9969997,1.9969978h11.5459995c1.1030006,0,1.9969978-0.8950005,1.9969978-1.9969978V13.010416 C32.8357162,11.9074163,31.9417191,11.0114164,30.8387184,11.0114164z M22.2167187,12.2254162h5.6999989 c0.1439972,0,0.2609978,0.2150002,0.2609978,0.4809999s-0.1170006,0.4820004-0.2609978,0.4820004h-5.7000008 c-0.1450005,0-0.2600002-0.2159996-0.2600002-0.4820004C21.9567184,12.4404163,22.0717182,12.2254162,22.2167187,12.2254162z M25.0667191,36.4804153c-0.703001,0-1.2749996-0.5719986-1.2749996-1.2759972s0.5720005-1.2740021,1.2749996-1.2740021 c0.7010002,0,1.2729988,0.5699997,1.2729988,1.2740021C26.3397179,35.9084167,25.7677193,36.4804153,25.0667191,36.4804153z M31.3397179,32.1114159h-12.546999V14.3844166h12.546999C31.3397179,14.3844166,31.3397179,32.1114159,31.3397179,32.1114159z"/></svg>